<svg xmlns="http://www.w3.org/2000/svg" width="24" height="24" viewBox="0 0 24 24"><path d="M18,8.1H14V7.226h4Zm.84,6.125c-.77,2.258-5.949,2.966-5.949-1.56,0-4.583,5.508-4.377,6.053-.872A8.029,8.029,0,0,1,19,13.043h-4.41a1.414,1.414,0,0,0,2.4,1.184H18.84Zm-4.211-2.333h2.624A1.312,1.312,0,1,0,14.629,11.893ZM8.771,15.969H5V7.239H9.056c3.194.047,3.255,3.176,1.587,4.028C12.662,12,12.729,15.969,8.771,15.969Zm-1.9-5.134H8.84c1.464,0,1.7-1.859-.182-1.859H6.875Zm1.854,1.454H6.875v1.947H8.7C10.481,14.235,10.372,12.289,8.729,12.289ZM12,2A10,10,0,1,1,2,12,10.011,10.011,0,0,1,12,2Zm0-2A12,12,0,1,0,24,12,12,12,0,0,0,12,0Z" fill="#fff"/></svg>