<svg xmlns="http://www.w3.org/2000/svg" width="23.796" height="23.796" viewBox="0 0 23.796 23.796"><path d="M11.9,0A11.9,11.9,0,1,0,23.8,11.9,11.912,11.912,0,0,0,11.9,0Zm0,22.309A10.411,10.411,0,1,1,22.309,11.9,10.423,10.423,0,0,1,11.9,22.309Z" fill="#fff"/><g transform="translate(10.075 2.975)"><path d="M218.591,64a8.985,8.985,0,0,0-1.823.187,42.392,42.392,0,0,1,2.931,4.788,21,21,0,0,0,4.585-2.922A8.885,8.885,0,0,0,218.591,64Z" transform="translate(-216.768 -64)" fill="#fff"/></g><g transform="translate(13.65 6.077)"><path d="M298.7,130.752a22.643,22.643,0,0,1-5,3.195q.587,1.223,1.09,2.479a16.628,16.628,0,0,1,6.068-.106A8.872,8.872,0,0,0,298.7,130.752Z" transform="translate(-293.696 -130.752)" fill="#fff"/></g><g transform="translate(3.211 3.619)"><path d="M74.458,77.856a8.928,8.928,0,0,0-5.37,6.269A21.053,21.053,0,0,0,77.5,82.751,40.669,40.669,0,0,0,74.458,77.856Z" transform="translate(-69.088 -77.856)" fill="#fff"/></g><g transform="translate(2.975 9.859)"><path d="M73.31,212.128a22.386,22.386,0,0,1-8.125,1.551c-.385,0-.772-.024-1.159-.045-.01.177-.027.352-.027.532a8.883,8.883,0,0,0,2.1,5.748,16.731,16.731,0,0,1,8.213-5.525Q73.849,213.243,73.31,212.128Z" transform="translate(-64 -212.128)" fill="#fff"/></g><g transform="translate(15.286 12.9)"><path d="M328.9,277.826a42.014,42.014,0,0,1,1.673,6.084,8.913,8.913,0,0,0,3.767-6.11A15.159,15.159,0,0,0,328.9,277.826Z" transform="translate(-328.896 -277.567)" fill="#fff"/></g><g transform="translate(6.133 13.504)"><path d="M139.66,290.56a15.231,15.231,0,0,0-7.692,5.2,8.882,8.882,0,0,0,9.463,1.307A40.476,40.476,0,0,0,139.66,290.56Z" transform="translate(-131.968 -290.56)" fill="#fff"/></g></svg>