<svg xmlns="http://www.w3.org/2000/svg" width="24.062" height="23.806" viewBox="0 0 24.062 23.806"><g transform="translate(4.983 7.922)"><path d="M24.277,19.6A3.373,3.373,0,0,0,21,22.339a16.713,16.713,0,0,1-1.706-3.681H17.588v4.489a1.616,1.616,0,1,1-3.232,0V18.658H12.65v4.489a3.278,3.278,0,1,0,6.554,0v-.763a13.376,13.376,0,0,0,1.212,2.02l-1.077,4.938H21.09l.763-3.591a4.449,4.449,0,0,0,2.334.673,3.548,3.548,0,0,0,3.457-3.457A3.392,3.392,0,0,0,24.277,19.6Zm-.135,5.073a3.042,3.042,0,0,1-1.886-.763l.18-.673v-.045c.09-.718.494-1.93,1.751-1.93a1.7,1.7,0,0,1,1.706,1.661A1.813,1.813,0,0,1,24.143,24.674Z" transform="translate(-12.65 -18.658)" fill="#fff"/></g><g transform="translate(0 0)"><path d="M13.582,1.011a11.968,11.968,0,0,0-12.031,11.9,12.032,12.032,0,0,0,24.062,0A11.982,11.982,0,0,0,13.582,1.011Zm0,22.318A10.416,10.416,0,1,1,24.109,12.914h0A10.485,10.485,0,0,1,13.582,23.329Z" transform="translate(-1.551 -1.011)" fill="#fff"/></g></svg>